# xmcd
#
# Track frame offsets:
#	150
#	16042
#	31817
#	49843
#	66203
#	84741
#	107746
#	125424
#	138625
#	151112
#
# Disc length: 2260 seconds
#
# Revision: 1
# Processed by: cddbd v1.5.2PL0 Copyright (c) Steve Scherf et al.
# Submitted via: audiograbber 1.83.01
#
DISCID=7b08d20a
DTITLE=Johnny Winter - Scorchin´ Blues
DYEAR=1900
DGENRE=Blues
TTITLE0=Walkin´ by myself
TTITLE1=Divin´ Duck
TTITLE2=One Step at a Time
TTITLE3=Bladie Mae
TTITLE4=Mad Blues
TTITLE5=It was rainin´
TTITLE6=Mean Mistreater
TTITLE7=Mother-in-Law Blues
TTITLE8=Dallas
TTITLE9=Mean Town Blues
EXTD=
EXTT0=
EXTT1=
EXTT2=
EXTT3=
EXTT4=
EXTT5=
EXTT6=
EXTT7=
EXTT8=
EXTT9=
PLAYORDER=
